<?xml version="1.0" encoding="UTF-8"?>
<svg version="1.1" xmlns="http://www.w3.org/2000/svg" width="24" height="24">
<path d="M0 0 C0.73734375 0.00773438 1.4746875 0.01546875 2.234375 0.0234375 C3.34039063 0.01183594 3.34039063 0.01183594 4.46875 0 C9.9810554 0.0201179 9.9810554 0.0201179 12.234375 2.2734375 C12.43289602 4.98266551 12.51276977 7.56646929 12.484375 10.2734375 C12.49210937 11.01078125 12.49984375 11.748125 12.5078125 12.5078125 C12.4876946 18.0201179 12.4876946 18.0201179 10.234375 20.2734375 C7.52514699 20.47195852 4.94134321 20.55183227 2.234375 20.5234375 C1.49703125 20.53117187 0.7596875 20.53890625 0 20.546875 C-5.5123054 20.5267571 -5.5123054 20.5267571 -7.765625 18.2734375 C-7.96414602 15.56420949 -8.04401977 12.98040571 -8.015625 10.2734375 C-8.02335938 9.53609375 -8.03109375 8.79875 -8.0390625 8.0390625 C-8.01420108 1.22703341 -6.81202909 0.02486142 0 0 Z " fill="#535CF9" transform="translate(9.765625,1.7265625)"/>
<path d="M0 0 C1.47668858 0.0133035 2.95331108 0.03716415 4.4296875 0.0703125 C5.18378906 0.07933594 5.93789062 0.08835938 6.71484375 0.09765625 C8.57826004 0.1212438 10.44151343 0.15711531 12.3046875 0.1953125 C10.6546875 2.1753125 9.0046875 4.1553125 7.3046875 6.1953125 C8.2946875 7.1853125 9.2846875 8.1753125 10.3046875 9.1953125 C9.6446875 10.5153125 8.9846875 11.8353125 8.3046875 13.1953125 C7.6446875 13.1953125 6.9846875 13.1953125 6.3046875 13.1953125 C6.3046875 11.8753125 6.3046875 10.5553125 6.3046875 9.1953125 C5.6446875 10.8453125 4.9846875 12.4953125 4.3046875 14.1953125 C3.3971875 13.8034375 2.4896875 13.4115625 1.5546875 13.0078125 C0.4821875 12.7396875 -0.5903125 12.4715625 -1.6953125 12.1953125 C-3.89620734 13.57477474 -3.89620734 13.57477474 -5.6953125 15.1953125 C-5.74917879 13.07058674 -5.78804321 10.94547598 -5.8203125 8.8203125 C-5.84351563 7.63695312 -5.86671875 6.45359375 -5.890625 5.234375 C-5.59323575 0.6069982 -4.56597788 0.24133075 0 0 Z " fill="#7F7AFD" transform="translate(7.6953125,1.8046875)"/>
<path d="M0 0 C0.66 0.33 1.32 0.66 2 1 C0.69791667 2.43229167 -0.60416667 3.86458333 -1.90625 5.296875 C-3.36024492 7.22360515 -3.36024492 7.22360515 -3 11 C-2.34 10.67 -1.68 10.34 -1 10 C-1 11.32 -1 12.64 -1 14 C-1.9075 13.608125 -2.815 13.21625 -3.75 12.8125 C-6.96052929 11.60932055 -6.96052929 11.60932055 -9.375 13.375 C-9.91125 13.91125 -10.4475 14.4475 -11 15 C-10.582687 10.07215495 -8.45014073 8.0222855 -4.9375 4.6875 C-4.01839844 3.80449219 -3.09929688 2.92148438 -2.15234375 2.01171875 C-1.44207031 1.34785156 -0.73179688 0.68398437 0 0 Z " fill="#7C78FD" transform="translate(13,2)"/>
<path d="M0 0 C1.98 0.99 3.96 1.98 6 3 C3.75 5.5 3.75 5.5 1 8 C-0.32 8 -1.64 8 -3 8 C-3.75 6.25 -3.75 6.25 -4 4 C-2.0625 1.75 -2.0625 1.75 0 0 Z " fill="#676AFB" transform="translate(6,13)"/>
<path d="M0 0 C0.99 0.33 1.98 0.66 3 1 C1.95125002 3.62187494 1.35068687 4.79371361 -1.125 6.25 C-1.74375 6.4975 -2.3625 6.745 -3 7 C-3.66 6.34 -4.32 5.68 -5 5 C-3.35 3.35 -1.7 1.7 0 0 Z " fill="#6368FB" transform="translate(19,3)"/>
<path d="M0 0 C2.475 0.99 2.475 0.99 5 2 C5 3.32 5 4.64 5 6 C4.01 6.33 3.02 6.66 2 7 C2 5.68 2 4.36 2 3 C1.01 3.495 1.01 3.495 0 4 C0 2.68 0 1.36 0 0 Z " fill="#B2B5FD" transform="translate(12,8)"/>
<path d="M0 0 C0.66 0 1.32 0 2 0 C2 1.32 2 2.64 2 4 C2.66 3.67 3.32 3.34 4 3 C4 4.32 4 5.64 4 7 C1.525 6.01 1.525 6.01 -1 5 C-1 1 -1 1 0 0 Z " fill="#B8B9FD" transform="translate(8,9)"/>
<path d="M0 0 C2.0625 0.4375 2.0625 0.4375 4 1 C1.03 3.475 1.03 3.475 -2 6 C-1.125 1.125 -1.125 1.125 0 0 Z " fill="#998BFF" transform="translate(4,2)"/>
</svg>
